<svg version="1.1" id="Layer_1" xmlns="http://www.w3.org/2000/svg" xmlns:xlink="http://www.w3.org/1999/xlink" x="0px" y="0px"
	 width="100%" viewBox="0 0 880 880" enable-background="new 0 0 880 880" xml:space="preserve">
<path fill="#000000" opacity="1.000000" stroke="none" 
	d="
M1.000003,714.437500 
	C4.675488,713.003174 8.294825,711.565735 12.036574,711.088867 
	C25.296804,709.399170 38.073009,705.499878 50.993916,702.424255 
	C67.268219,698.550232 83.855042,696.603027 100.170074,693.068481 
	C109.398605,691.069275 118.935509,690.538635 128.269623,688.966980 
	C135.446014,687.758728 142.480499,685.711731 149.654434,684.483582 
	C158.305222,683.002686 167.033417,681.969116 175.734146,680.786499 
	C184.269348,679.626343 192.793091,678.526489 201.287216,676.950745 
	C210.882935,675.170715 220.789047,675.141052 230.478058,673.770020 
	C247.580902,671.350037 264.757446,669.671692 281.963135,668.400024 
	C291.987823,667.659058 301.959412,665.795837 312.085999,666.527283 
	C313.771942,666.649048 315.408447,666.058594 316.677979,664.881104 
	C322.241028,659.721497 323.019165,645.749695 317.573975,640.612732 
	C311.612396,634.988586 309.071411,627.577454 306.547302,620.350159 
	C304.345520,614.045715 302.133392,607.361206 304.132202,600.354797 
	C304.796600,598.025879 302.899231,596.754333 301.380859,596.142151 
	C293.300385,592.884888 287.408264,586.421387 281.360107,580.874146 
	C273.801880,573.941895 265.851959,566.123596 263.518066,555.457092 
	C261.708252,547.185669 258.298706,538.764404 264.110321,530.029053 
	C266.651215,526.209778 266.702515,520.468811 267.088959,515.538147 
	C267.838989,505.967957 274.879669,499.277039 277.793701,490.733398 
	C278.745331,487.943329 280.155792,485.309723 281.662964,481.913818 
	C277.043549,483.204163 273.450500,485.225555 270.334167,487.730530 
	C257.722504,497.867706 243.096329,499.456696 227.863464,497.692444 
	C222.577393,497.080231 218.682281,497.651489 214.248428,501.118958 
	C206.956421,506.821625 198.713943,511.312561 190.844437,516.270325 
	C189.199051,517.306885 186.706299,517.716064 186.735016,520.095337 
	C186.760300,522.191895 188.994431,522.755188 190.590073,523.583435 
	C205.954208,531.558228 221.115204,539.899414 235.761795,549.132812 
	C239.976883,551.789978 244.138397,554.649963 247.851273,557.949463 
	C250.911057,560.668518 253.652176,561.360229 257.285675,559.463318 
	C258.794525,558.675598 260.477478,557.587585 262.677673,558.516846 
	C261.546173,562.348877 257.015167,561.640320 255.000183,564.418884 
	C255.519348,567.418396 258.018158,569.425354 259.198120,572.107727 
	C259.737579,573.334106 260.306030,574.631226 259.320984,575.879150 
	C258.255341,577.229187 256.777649,577.505615 255.271179,576.851074 
	C252.271667,575.547729 248.866211,574.984863 246.915085,571.793823 
	C245.564423,569.584778 243.529938,568.773804 240.889557,569.805054 
	C231.148651,573.609802 221.593109,578.088013 211.578690,580.952271 
	C190.587524,586.956116 169.613480,594.148376 147.187393,590.408875 
	C138.952698,589.035706 132.609192,584.642151 126.471840,578.642700 
	C117.622963,569.992554 110.757027,559.878845 102.324883,549.933167 
	C102.464432,553.888672 104.146591,556.745911 104.999336,560.018799 
	C102.133720,560.604065 101.374474,558.695496 100.413239,557.356567 
	C91.739616,545.274902 85.218307,532.163330 79.997536,518.184021 
	C76.216049,508.058563 72.578987,497.909454 70.759438,487.350677 
	C69.241791,478.543854 68.207458,469.584473 67.869125,460.553864 
	C67.520554,451.249939 67.306381,441.991699 68.156281,432.722351 
	C68.333961,430.784485 68.133446,428.949951 66.433800,427.819153 
	C64.719696,426.678772 63.238995,427.779999 61.934410,428.854889 
	C55.403072,434.236298 47.569695,437.050415 39.897896,440.225616 
	C37.624470,441.166534 35.313396,440.758636 33.037090,441.078766 
	C30.592794,441.422516 27.588676,441.573547 26.299316,439.017029 
	C24.955717,436.352966 26.133654,433.681488 27.577036,431.026306 
	C32.081318,422.740387 39.338345,416.739380 45.369476,409.038940 
	C42.945557,407.843201 40.602844,406.808716 38.379753,405.561035 
	C35.417892,403.898743 34.171192,402.150085 37.388931,399.129913 
	C45.323624,391.682343 54.637440,386.747650 64.767151,383.141205 
	C65.528854,382.870026 66.366524,382.796295 67.105110,382.481262 
	C67.686195,382.233398 68.168861,381.754822 68.726387,381.356476 
	C67.705154,379.368042 65.767715,378.737396 64.145416,378.373810 
	C57.327145,376.845917 54.007847,369.782745 47.374081,368.029694 
	C46.696777,367.850739 46.162796,366.915619 45.680332,366.246277 
	C40.850605,359.546448 35.790581,352.997589 35.133614,344.237885 
	C34.848995,340.442902 41.094383,334.663788 46.427494,334.922638 
	C56.519016,335.412415 66.783737,335.321869 76.022636,340.517609 
	C77.272110,341.220245 78.732094,342.404846 80.113556,341.048004 
	C81.337120,339.846283 80.778893,338.224518 80.235001,336.818817 
	C77.298561,329.229767 75.123749,321.416412 75.053703,313.268066 
	C75.016724,308.966125 75.708794,304.549042 76.794167,300.371674 
	C78.449394,294.001007 85.900200,292.824707 91.399834,298.226685 
	C96.071884,302.815765 100.276978,307.614777 103.200356,313.913635 
	C110.315498,329.244293 114.526596,345.363251 118.429031,361.639832 
	C118.835602,363.335571 119.733673,365.582306 117.572128,366.560272 
	C115.644913,367.432251 113.841408,366.189362 112.150322,364.960571 
	C108.455620,362.276001 107.443413,357.927460 106.314331,354.164551 
	C104.500671,348.120117 101.235329,342.746033 99.414413,336.728943 
	C98.277710,332.972748 95.819878,329.667816 97.674156,325.430237 
	C98.080551,324.501495 97.913368,322.896149 97.348946,322.036835 
	C93.504097,316.183411 89.115723,310.704681 85.649773,304.102692 
	C83.001564,306.551819 83.144287,309.068298 83.275078,311.497925 
	C84.068321,326.233826 88.874512,339.794739 96.040627,352.493317 
	C99.396278,358.439697 105.611504,362.119659 109.566681,367.775116 
	C111.884247,371.088959 112.295692,372.991821 107.975395,374.215851 
	C106.831070,374.540070 105.560349,374.816833 105.777122,376.371887 
	C105.853523,376.919891 106.417404,377.598083 106.935791,377.844879 
	C107.992859,378.348114 108.805748,377.612061 109.557220,376.924957 
	C117.041924,370.081329 125.936958,365.896118 135.894485,364.921600 
	C142.079987,364.316223 148.738342,364.098816 153.328812,370.307770 
	C155.596451,373.374939 156.481613,376.900208 155.857758,380.059845 
	C153.765854,390.654419 149.691330,400.618805 145.347519,410.530792 
	C141.621414,419.033234 138.225464,428.389923 142.028458,437.473480 
	C144.558212,443.515900 148.169968,449.293060 150.444656,455.488831 
	C156.124207,470.958710 164.833878,484.650696 174.267731,497.950958 
	C176.848923,501.589966 180.024170,504.807800 182.929459,508.216644 
	C183.886017,509.338989 185.339325,510.104645 186.455505,509.248322 
	C190.574936,506.088013 196.285507,504.749023 198.272125,499.086853 
	C199.419830,495.815643 201.087341,493.264099 205.046570,492.640320 
	C207.956924,492.181793 209.338257,489.291992 210.077576,486.878571 
	C210.972809,483.956207 212.625946,481.871918 214.824188,480.088348 
	C221.181641,474.930267 223.893051,466.997620 229.292664,461.167877 
	C235.034393,454.968811 238.077637,446.764252 244.455231,441.131989 
	C246.455811,439.365204 247.139084,436.891083 248.144119,434.817627 
	C250.529312,429.896698 255.607620,427.940094 258.634277,423.876160 
	C261.173248,420.466980 262.528961,417.997375 257.543030,414.776306 
	C251.355179,410.778748 246.949173,405.082458 250.285965,396.682617 
	C251.407852,393.858368 250.087631,391.948059 247.008865,392.135681 
	C240.854492,392.510712 236.602921,389.147491 231.840454,385.913300 
	C227.933090,383.259827 224.704880,380.290588 221.819077,376.711029 
	C220.734207,375.365356 219.609528,373.925720 219.978928,372.235870 
	C221.078369,367.206329 220.866180,362.162537 221.041580,357.082886 
	C221.175095,353.216583 220.040680,351.247803 216.882492,350.473480 
	C212.627502,349.430237 209.560974,346.641296 206.243973,344.203308 
	C203.857864,342.449585 202.500183,340.316833 203.297882,336.903320 
	C203.790192,334.796692 203.277023,332.234558 202.548843,330.104736 
	C200.382660,323.768951 201.768082,318.109497 205.316437,312.804077 
	C207.029816,310.242279 206.778809,307.115234 208.376572,304.441223 
	C213.528290,295.819550 220.740662,289.724457 230.023849,286.234070 
	C232.919159,285.145447 233.769135,283.881897 233.720703,280.872498 
	C233.643616,276.082367 236.102234,271.817749 238.282639,267.809631 
	C245.756714,254.070404 256.124207,243.276764 271.250397,237.848160 
	C272.032654,237.567413 272.878479,237.125229 273.649292,237.203827 
	C281.179901,237.971680 284.692017,234.327240 286.813385,227.241028 
	C289.916718,216.874512 299.286133,211.514816 306.931824,204.874512 
	C310.969147,201.368088 315.210815,198.216339 320.180328,196.107513 
	C322.928009,194.941513 322.969604,193.396484 320.931244,191.175446 
	C316.713898,186.580215 316.217987,181.028992 315.781860,174.894516 
	C315.364868,169.028961 318.787384,164.205902 318.127808,158.535309 
	C317.892212,156.509674 319.538971,154.541183 320.991394,152.862671 
	C323.693726,149.739685 326.317200,146.548431 329.612793,142.624359 
	C323.728973,141.897751 318.481873,142.247543 313.404205,140.734695 
	C304.957703,138.218140 297.747009,128.650131 305.760986,118.582329 
	C316.215057,105.449104 329.747101,98.069542 346.308044,96.180504 
	C352.176605,95.511093 354.479065,97.675232 353.037079,102.072113 
	C346.365692,98.971382 340.779572,102.993896 335.402832,105.541588 
	C328.709564,108.713127 322.177704,112.510757 316.711487,117.794937 
	C314.029236,120.387871 311.931366,123.289223 310.250702,126.592422 
	C308.620392,129.796692 309.587830,132.484558 311.781830,134.792664 
	C314.956360,138.132263 317.592926,138.053482 320.536774,134.418869 
	C324.129150,129.983521 328.286041,126.186005 332.728485,122.660797 
	C333.587921,121.978828 334.305603,120.840721 336.219055,121.826614 
	C332.786774,127.682068 326.559479,131.177933 323.399811,137.050781 
	C324.390381,138.691330 325.883514,138.149765 327.074585,137.978714 
	C336.596924,136.611069 345.615143,134.316772 353.135345,127.505241 
	C358.137634,122.974350 364.088837,119.551872 368.357819,114.080109 
	C370.479431,111.360771 373.887970,110.361076 377.308899,110.230255 
	C381.249908,110.079536 384.324768,108.599449 386.668671,104.852417 
	C388.549255,107.544731 390.473267,106.950134 393.169922,105.792809 
	C405.323334,100.576820 417.637482,95.887108 430.493805,92.413963 
	C443.288849,88.957367 456.100311,89.224953 468.960266,89.798775 
	C476.246002,90.123856 483.412231,89.099693 490.567657,89.210365 
	C497.264648,89.313950 503.764679,92.191849 509.669495,95.672249 
	C514.048340,98.253242 518.175293,101.264771 522.577209,103.802284 
	C524.848938,105.111862 527.316772,106.634102 527.445374,109.064278 
	C527.679504,113.491943 530.630066,114.610725 533.830811,115.572083 
	C538.151855,116.869934 542.313965,118.051971 544.853699,122.414162 
	C545.966919,124.326141 548.612427,124.270782 550.747742,124.549805 
	C558.061462,125.505478 564.374329,128.536438 569.838623,133.487076 
	C573.167419,136.503006 575.052856,140.049683 574.043884,144.558151 
	C573.436584,147.271667 574.615173,148.245697 576.941956,148.642715 
	C577.270081,148.698715 577.600403,148.761627 577.917358,148.860962 
	C581.676941,150.039322 586.630737,150.337692 587.591064,154.786316 
	C588.566528,159.305252 585.459595,163.169067 582.572327,166.612366 
	C581.735474,167.610352 580.475037,168.319672 580.673828,170.091675 
	C582.646851,172.546448 585.746887,171.903564 588.399658,172.429810 
	C593.137573,173.369675 597.967468,173.939667 601.883362,177.169495 
	C604.391663,179.238342 605.817078,181.538712 604.327087,184.989670 
	C603.574036,186.733871 602.495911,188.557373 603.383362,190.724899 
	C603.883057,191.945663 603.205627,193.227661 602.081970,193.658997 
	C599.204895,194.763489 598.269104,198.075134 596.012085,199.311203 
	C591.234497,201.927734 589.534607,207.154922 585.109436,210.210709 
	C587.473022,213.268936 591.013611,213.478561 593.916504,214.798157 
	C602.737244,218.807907 603.603699,222.802536 597.395386,230.246140 
	C594.911926,233.223816 592.045471,235.652313 588.983215,237.960770 
	C587.228516,239.283615 586.195923,241.233521 585.673462,243.666214 
	C587.975708,246.092178 591.163940,246.222168 594.214661,246.784668 
	C602.888672,248.384033 611.684631,249.663101 619.279968,254.658646 
	C626.333862,259.298096 627.239319,262.426147 623.720825,270.113251 
	C622.032776,273.801270 621.014343,277.687347 618.245911,281.027924 
	C614.816833,285.165649 616.444214,290.015472 621.434387,292.572174 
	C625.429565,294.619080 629.703552,296.097778 633.492615,298.583984 
	C641.681580,303.957306 645.294006,309.970734 640.602478,320.440186 
	C635.188843,332.520996 626.870117,342.081757 617.678101,351.814301 
	C615.743164,348.910980 617.101257,347.156891 618.346741,345.203522 
	C623.978088,336.371063 629.861389,327.636047 633.031189,317.523926 
	C635.509888,309.616516 632.936462,305.118500 625.890320,300.777771 
	C621.098267,297.825684 615.601624,296.134338 611.303223,292.371277 
	C607.335815,288.898010 606.432861,285.091522 608.822754,280.396423 
	C611.011353,276.096832 613.579102,271.995117 615.242981,267.428162 
	C616.690674,263.454529 615.922485,260.105652 612.351257,257.810944 
	C608.587402,255.392441 604.719910,252.471008 600.115906,252.660339 
	C593.588623,252.928787 587.855591,250.427322 581.872803,248.713074 
	C578.827759,247.840576 576.362183,245.995956 575.661804,242.826736 
	C574.985413,239.766052 577.235535,237.921616 579.462524,236.346222 
	C583.698792,233.349442 587.601807,230.022568 590.712708,225.818909 
	C593.630371,221.876312 592.970093,219.088821 588.145447,218.535034 
	C584.114258,218.072296 581.744080,215.206894 578.462769,213.761642 
	C576.188416,212.759903 575.758301,210.505539 576.915466,208.201874 
	C578.357544,205.330719 580.388611,202.976471 582.922791,200.960220 
	C587.485229,197.330154 591.893555,193.489243 595.217346,188.635666 
	C598.691284,183.562668 596.286011,179.511917 590.365601,178.359390 
	C584.928406,177.300919 579.333618,176.877808 574.036743,174.824661 
	C569.644104,173.122009 570.135315,170.962738 572.532898,168.144699 
	C574.364197,165.992416 576.583313,164.133713 578.195862,161.839401 
	C581.592346,157.006989 579.839111,153.594803 573.890564,153.100601 
	C571.244324,152.880783 568.588684,152.770203 565.935913,152.636841 
	C564.051758,152.542114 562.284607,152.248825 561.279785,150.396545 
	C561.335083,150.030136 561.281799,149.636475 561.447754,149.391052 
	C567.872314,139.889114 564.636047,131.995499 553.043945,130.390656 
	C548.919739,129.819702 545.043152,127.188713 540.511169,128.720169 
	C539.156250,129.178024 538.008789,127.523003 537.513367,125.929916 
	C535.756226,120.279755 532.940186,118.718704 527.251221,120.127991 
	C526.605164,120.288048 525.941711,120.630928 525.315430,120.573196 
	C522.698547,120.331963 519.646179,120.605705 518.327759,117.703270 
	C516.814880,114.372765 520.922119,114.549423 522.045410,112.521683 
	C521.120300,108.683464 517.678528,106.956337 514.864868,104.825859 
	C509.780823,100.976311 503.811249,98.786133 497.989685,96.307922 
	C494.151581,94.674065 490.712494,96.357986 487.295471,97.226578 
	C480.057465,99.066429 473.264923,95.533775 466.211731,96.021309 
	C455.595673,96.755112 444.699799,96.379501 434.454010,98.760788 
	C422.595703,101.516853 410.795563,105.078102 399.325470,109.508690 
	C394.410004,111.407410 389.691071,113.736008 384.756012,115.573517 
	C382.782257,116.308426 381.190308,117.901535 379.822876,119.993256 
	C381.714355,121.163963 384.696350,121.583633 383.949249,124.685173 
	C383.279297,127.466286 380.829437,127.323181 378.669586,127.310005 
	C376.806091,127.298653 375.540314,128.117889 374.471283,129.551102 
	C373.379242,131.015152 372.115875,132.350922 371.012604,133.807281 
	C369.115997,136.310837 365.134308,137.980515 366.768250,142.005142 
	C367.678833,144.248077 375.774231,143.872757 378.937592,141.432495 
	C381.537628,139.426758 384.318146,138.122971 387.528717,137.776321 
	C389.070526,137.609863 390.627655,138.016800 391.458771,139.454636 
	C392.509491,141.272293 390.793884,142.100418 389.834290,143.148178 
	C388.210266,144.921417 386.216095,146.092087 383.860901,146.570206 
	C380.007446,147.352478 377.399414,149.606506 375.389191,152.952454 
	C371.602936,159.254608 373.276978,164.085861 380.565826,165.618500 
	C389.105774,167.414246 397.598938,168.416534 405.235168,162.028015 
	C409.302551,158.625214 414.365479,156.571838 419.507019,155.043671 
	C421.627625,154.413376 423.956635,153.954681 425.065826,156.660431 
	C426.004883,158.951141 424.947754,160.200272 423.032196,161.944534 
	C417.610535,166.881409 410.376160,167.634445 404.279968,170.946960 
	C400.787933,172.844467 399.258026,175.371277 399.312225,178.800583 
	C399.369629,182.430862 402.634338,183.627914 405.470520,184.485153 
	C414.190369,187.120728 422.898590,185.246017 431.682892,184.415329 
	C439.106293,183.713318 443.393890,178.609360 448.506653,174.542038 
	C451.280975,172.335007 454.240326,170.535904 457.502289,169.241394 
	C459.293518,168.530563 461.177429,168.426971 462.419403,170.305405 
	C463.557159,172.026245 462.799988,173.564743 461.454163,174.736557 
	C457.940125,177.796173 455.242889,181.821060 450.471741,183.399292 
	C447.023438,184.539948 445.619781,189.489441 447.913757,193.149826 
	C449.551697,195.763428 451.539093,198.276993 454.483093,199.818375 
	C464.539795,205.083786 475.261597,206.539902 486.424652,205.653168 
	C489.025848,205.446548 491.068207,203.959976 493.228058,202.703217 
	C496.542145,200.774796 499.879852,198.786026 503.898773,198.871063 
	C505.611267,198.907288 507.345673,199.475296 508.062347,201.151871 
	C508.786865,202.846771 507.242859,203.910782 506.248444,204.934097 
	C503.225830,208.044632 499.106873,209.087799 495.203552,210.481964 
	C490.080231,212.311844 489.702087,213.032516 492.327240,217.962051 
	C493.813354,220.752762 492.656647,224.886490 496.546478,226.431152 
	C499.881866,227.755630 502.618591,225.209335 505.708191,224.907562 
	C509.396851,224.547287 513.049622,224.489487 516.396362,226.461685 
	C518.319702,227.595062 520.311279,228.952179 519.766296,231.468796 
	C519.206421,234.054123 517.161926,236.299362 514.654785,236.268021 
	C509.721313,236.206284 504.424896,238.775864 499.836273,234.546555 
	C498.636047,233.440338 496.343475,233.576843 495.205750,234.935333 
	C492.569977,238.082581 489.068268,240.494690 487.430267,244.524078 
	C486.035614,247.954758 484.921448,251.404266 488.240967,254.059586 
	C491.653198,256.789093 495.562408,258.817444 500.229889,256.949371 
	C502.084229,256.207245 503.890930,255.330826 505.778900,254.691467 
	C508.978394,253.607941 511.072296,255.487305 512.196960,257.989685 
	C513.506470,260.903442 511.311768,262.236633 508.841705,262.887756 
	C504.476257,264.038544 500.687073,266.331268 500.746033,271.091827 
	C500.820160,277.077942 502.323303,282.905243 507.844330,286.678711 
	C509.542480,287.839325 510.953217,287.345581 512.415466,286.319092 
	C517.319153,282.876770 523.672913,287.272217 525.113037,293.363342 
	C525.757019,296.087311 522.544739,298.821716 518.912109,298.990936 
	C517.522400,299.055725 516.080383,297.604309 514.540955,299.310608 
	C515.056091,301.678772 517.622925,301.359802 519.072754,302.452881 
	C521.866455,304.559296 523.972290,307.020508 524.012268,310.665558 
	C524.042480,313.420593 521.968750,314.604187 519.831787,315.737640 
	C516.461060,317.525421 514.578796,315.472137 512.715515,313.189972 
	C509.038971,308.686768 505.843750,308.820312 503.653931,314.006561 
	C502.548523,316.624481 501.327271,319.127869 499.949860,321.587189 
	C498.995514,323.291138 498.673126,325.171967 499.849426,326.776520 
	C500.869781,328.168365 502.646027,327.787354 504.050079,327.401154 
	C508.594177,326.151398 512.110962,328.148132 514.398621,331.527252 
	C516.689514,334.911072 517.449219,339.246796 514.919861,342.871826 
	C512.366333,346.531403 509.322906,349.467133 503.832611,349.099304 
	C501.198212,348.922760 498.069366,345.269470 495.812744,348.795410 
	C494.162842,351.373413 496.993195,354.139130 497.104919,356.895935 
	C497.343262,362.777771 498.380798,368.305511 501.898132,373.260712 
	C504.922455,377.521240 506.930847,377.614532 509.525238,373.234100 
	C511.033875,370.686920 512.641541,368.198395 514.274902,365.570435 
	C516.187439,365.642395 517.730347,367.914886 519.917053,365.557068 
	C528.681763,356.106262 538.822021,347.851074 545.053711,336.241394 
	C547.961304,330.824585 549.494751,324.907318 551.399475,319.089813 
	C555.101379,307.783051 553.888672,295.452606 559.192261,284.464569 
	C560.437256,281.885254 559.139832,278.195496 559.721130,275.151978 
	C560.604736,270.525360 564.422302,266.763763 563.857239,261.574188 
	C563.762756,260.706360 564.470581,259.308289 566.220459,258.978394 
	C567.847656,261.982727 568.446350,264.876312 566.156494,268.012848 
	C564.773193,269.907623 564.117310,272.112762 564.102844,274.564880 
	C564.034851,286.081573 561.353760,297.229187 558.782043,308.338623 
	C556.904358,316.450256 554.648315,324.549438 551.636414,332.294678 
	C549.879761,336.811951 546.629395,340.891357 543.480835,344.695892 
	C535.950317,353.795319 527.655273,362.203522 518.892761,370.132233 
	C516.846985,371.983337 514.979919,373.757477 516.301941,376.879608 
	C516.846985,378.166748 516.326233,379.295471 515.090942,379.756866 
	C507.748596,382.499237 500.375366,385.158905 492.852875,387.904663 
	C492.530884,384.945496 495.592682,385.338501 496.083801,383.570801 
	C496.376434,382.578094 495.681061,382.045563 495.052948,381.525299 
	C488.347107,375.970764 486.779297,368.170807 487.311005,360.324982 
	C487.743469,353.942749 486.279480,347.253418 490.424042,341.016052 
	C492.452209,337.963806 490.417297,333.087433 490.720795,328.952515 
	C491.362152,320.214966 493.176117,312.602783 500.686890,306.971497 
	C506.037476,302.959808 505.902222,296.259674 501.166901,291.461273 
	C494.970886,285.182709 493.281647,277.097443 492.802765,268.785675 
	C492.615112,265.528320 491.961426,263.571411 488.809875,262.309570 
	C485.749817,261.084351 482.690308,259.611298 480.664673,256.743622 
	C477.156616,251.777344 477.592407,245.859467 482.090729,239.248016 
	C483.683594,236.906891 485.390747,234.582428 487.858185,233.083069 
	C490.928955,231.217102 490.497070,229.080215 488.328308,227.038559 
	C486.147034,224.985184 484.322113,222.711563 482.935150,219.690140 
	C480.021606,222.555817 476.804626,222.616684 473.506348,221.704224 
	C467.783112,220.120895 461.919556,223.483521 456.224976,221.120361 
	C454.701050,220.487976 453.075958,220.103287 451.532410,219.513092 
	C450.101776,218.966034 448.575623,218.313309 449.245850,216.320511 
	C449.859985,214.494461 451.458466,214.567764 452.998138,214.709747 
	C456.288177,215.013107 459.483887,216.203354 462.925415,215.789642 
	C463.989777,214.431442 464.238770,212.837570 464.319580,211.024979 
	C460.731903,207.528046 455.536652,209.065384 451.411285,206.902435 
	C445.749786,203.934097 441.169037,200.358917 439.642090,193.900833 
	C438.798096,190.331085 437.247620,189.058350 433.313202,190.069687 
	C421.962616,192.987305 410.600098,192.114319 399.342468,189.181351 
	C394.201630,187.842010 392.203735,183.715958 391.592865,179.204544 
	C390.960571,174.535187 388.807037,172.840210 384.359589,173.111740 
	C379.550964,173.405319 375.234161,171.584061 371.125031,169.390167 
	C367.314606,167.355743 364.552338,160.033676 365.577759,155.866089 
	C366.002319,154.140564 368.206055,151.505554 365.417755,150.770065 
	C363.062103,150.148666 359.941559,149.502701 357.472260,151.766205 
	C351.829254,156.938950 349.344604,170.598022 352.896820,177.390167 
	C353.556122,178.650833 354.906006,179.748291 354.044159,181.565964 
	C351.573669,183.068085 350.437195,179.797699 347.961304,179.876190 
	C346.906219,182.351990 348.754181,184.917389 348.224579,187.400604 
	C346.615692,194.944916 348.397217,202.630569 347.173370,210.201309 
	C346.651062,213.432526 348.116180,214.668442 351.575928,214.136078 
	C355.238983,213.572464 358.618500,212.196793 362.144012,211.262344 
	C366.019928,210.235001 369.669342,210.259171 373.108307,212.671127 
	C374.242065,213.466248 375.488617,214.093414 375.129486,215.717194 
	C374.811218,217.156219 373.487457,217.075928 372.345764,217.328293 
	C364.726440,219.012436 357.155487,220.941757 349.494537,222.401276 
	C345.083893,223.241577 342.800629,226.020462 340.756104,229.509918 
	C342.979431,231.392532 344.457733,229.717834 345.860474,228.835052 
	C350.824463,225.711151 356.172791,223.407639 361.555725,221.164032 
	C363.556610,220.330063 366.171753,219.047775 367.181091,221.762741 
	C368.163055,224.403946 364.974396,224.563461 363.378632,225.377090 
	C357.532867,228.357697 351.166382,230.382629 345.347900,235.044479 
	C352.188995,237.247543 358.181244,234.396072 364.231323,234.856918 
	C368.659637,235.194229 373.159058,235.671280 377.679047,235.136887 
	C379.376892,234.936157 381.252075,235.776810 382.972168,236.361191 
	C384.480316,236.873581 385.518616,238.027328 385.513855,239.724869 
	C385.509094,241.422089 384.271790,241.925873 382.830750,242.073181 
	C380.972961,242.263123 379.886261,243.303787 380.586273,245.076157 
	C382.055450,248.796005 380.771362,252.664764 381.565399,256.449219 
	C382.443085,260.632294 381.109894,261.512695 376.734772,260.403290 
	C376.281830,260.288422 375.700378,260.200775 375.311920,260.383728 
	C370.268799,262.758820 369.339233,259.175720 368.223999,255.637131 
	C366.950989,251.597794 368.493317,249.139984 372.356415,248.036469 
	C374.862335,247.320648 376.095856,245.766357 375.700134,243.281738 
	C375.250183,240.456665 372.887360,241.978577 371.316254,241.542313 
	C365.502258,239.927887 363.658508,243.199554 362.701660,247.978516 
	C361.778625,252.588409 361.302979,257.178680 362.298157,261.841125 
	C362.559448,263.065186 363.508728,264.354279 362.252167,265.580688 
	C357.120728,264.134491 356.726929,261.922180 358.159088,242.017853 
	C352.218048,242.013077 346.325348,241.918640 340.451721,242.999527 
	C338.553741,243.348801 337.512421,244.240402 337.105865,246.125748 
	C336.065735,250.949524 334.947906,255.756714 333.839905,260.565643 
	C330.660492,274.364838 325.705383,287.501862 319.815308,300.381622 
	C315.821045,309.115845 312.957703,318.361755 309.423859,327.313812 
	C306.815216,333.922089 307.248962,340.236603 310.250641,346.598907 
	C315.881561,358.534271 326.504547,365.283386 336.816284,372.312683 
	C343.162537,376.638794 350.414948,379.322083 357.227478,382.807190 
	C358.385040,383.399323 359.689117,383.903381 361.120819,383.138367 
	C363.017181,380.561005 360.419922,376.691467 363.601227,374.311707 
	C369.143524,375.097260 370.018982,379.397766 370.079559,383.800781 
	C370.131409,387.568298 371.770325,389.561981 375.085327,390.922241 
	C387.273346,395.923401 399.566772,400.381500 413.032867,400.041199 
	C414.504242,400.004028 416.281799,399.737823 416.908112,401.523346 
	C417.631012,403.584229 416.327362,404.901764 414.766296,406.105103 
	C405.150513,413.517181 395.066010,411.155304 385.030609,407.413910 
	C380.210144,405.616760 375.594421,403.268188 370.896210,401.146698 
	C369.157135,400.361389 367.436493,400.076782 365.234192,401.219055 
	C367.016876,408.033661 364.932861,414.905060 364.294952,422.016815 
	C366.915619,421.559418 366.494629,419.484406 367.572388,418.522583 
	C370.418030,415.983154 373.114838,415.788483 375.841614,418.702240 
	C378.230133,421.254578 380.632599,423.529022 376.258118,426.660461 
	C374.500763,427.918457 371.277100,428.733154 371.547852,431.324036 
	C372.008789,435.735382 373.380127,440.059082 375.245880,444.137939 
	C375.927216,445.627472 377.236633,446.846985 377.825500,448.358734 
	C382.617035,460.660004 392.343231,468.486298 403.024597,474.971863 
	C410.053345,479.239624 418.351166,480.841400 426.644470,479.531921 
	C437.149536,477.873169 442.670593,470.340607 445.393890,460.922974 
	C447.630005,453.190125 450.914886,446.343323 456.786530,440.844757 
	C458.344055,439.386169 458.834595,438.308502 457.523804,436.213684 
	C448.822815,422.307922 451.209015,412.897217 465.404785,404.314911 
	C466.535675,403.631195 467.677521,402.965607 469.470428,401.902496 
	C461.799225,394.528564 465.983612,386.801025 470.532043,381.029358 
	C477.002502,372.818726 481.223663,372.310486 487.407745,374.907654 
	C487.376282,377.248779 485.299957,377.690948 483.817749,378.492584 
	C479.231995,380.972809 475.989410,384.533112 474.125427,389.422272 
	C472.629150,393.346802 472.723602,397.036377 475.880493,400.023346 
	C478.837952,402.821686 477.970215,405.013489 475.109528,406.834686 
	C471.532898,409.111664 468.916870,412.268036 466.125458,415.361176 
	C459.442688,422.766296 460.574493,432.333649 468.989929,437.402313 
	C471.906311,439.158875 471.906311,439.158875 473.502319,442.268616 
	C473.301239,442.522217 473.095551,442.989990 472.889435,442.990143 
	C463.481873,442.997498 460.651550,449.469330 457.149384,456.881958 
	C453.104034,465.444397 454.674072,472.509827 458.580658,479.990723 
	C458.734589,480.285461 458.859955,480.651672 459.109100,480.831848 
	C464.721069,484.890472 464.837677,488.530548 459.792877,493.793396 
	C456.124512,497.620270 459.647278,507.956970 465.102112,513.184021 
	C461.968994,520.962769 462.200226,523.303772 466.433899,526.667664 
	C470.103210,529.583130 473.841431,529.299866 476.950562,525.772888 
	C478.391083,524.138733 479.758850,522.438660 481.854980,521.626526 
	C484.067047,520.769470 486.128448,521.186646 487.912415,522.713074 
	C489.546448,524.111206 488.757935,525.483948 488.059692,527.149292 
	C486.085083,531.858765 488.501465,535.406006 493.610718,535.684021 
	C500.616730,536.065247 508.564575,528.905457 508.767120,521.827209 
	C508.859528,518.597778 508.465576,515.171936 512.362671,513.952271 
	C516.097046,512.783447 518.603516,514.443909 520.476807,517.884827 
	C522.137024,520.934265 524.837524,519.699585 526.951233,518.305908 
	C530.863281,515.726501 532.321533,511.712585 532.765381,507.217957 
	C533.694519,497.808441 531.680847,488.929443 527.372498,480.662567 
	C525.431091,476.937378 526.163086,474.020721 528.961060,471.791870 
	C539.353088,463.513519 539.913086,451.994659 539.549866,440.267120 
	C539.375671,434.641052 538.326660,429.045624 535.816406,423.857941 
	C535.159729,422.500793 534.619873,421.132446 533.237000,420.286072 
	C531.991394,419.523712 530.334961,418.845337 530.954102,416.925049 
	C531.507629,415.208405 532.952332,414.054688 534.677551,413.981781 
	C538.531860,413.818878 539.664917,411.489655 541.063782,408.246979 
	C544.973328,399.184570 553.641113,392.770630 563.178833,393.517975 
	C568.387634,393.926117 571.843445,396.363068 573.718323,400.614624 
	C575.676086,405.053894 576.659180,409.936615 572.425842,414.053253 
	C571.842773,414.620239 571.432434,415.364746 570.976135,415.981079 
	C574.409119,422.079071 570.656921,427.652527 562.656921,428.172943 
	C557.792725,428.489349 552.885925,428.743866 547.686646,427.360352 
	C547.746643,434.118866 550.342712,440.012207 550.104736,446.273987 
	C550.009460,448.781006 550.181702,451.066803 548.679321,453.371490 
	C546.594604,456.569489 548.553772,461.151215 545.264587,464.141815 
	C544.320984,464.999756 544.000366,466.511353 543.127197,467.483673 
	C538.806152,472.295715 537.361572,476.272705 540.249390,483.595978 
	C543.059326,490.721802 543.907166,499.613556 542.947449,507.938080 
	C542.319397,513.385132 533.079590,523.350891 525.104980,524.185242 
	C520.278320,524.690186 516.790710,526.264038 513.616089,530.539978 
	C508.212677,537.818054 500.016602,540.979614 490.972900,540.990051 
	C486.899933,540.994751 482.807495,539.838928 479.795197,536.708801 
	C477.322998,534.139832 474.435486,534.170410 471.163574,534.276367 
	C460.755157,534.613220 458.467102,533.322693 453.916412,524.628723 
	C451.772095,520.532043 453.440430,517.302490 455.217529,513.780640 
	C446.510132,506.499847 447.937714,497.601044 451.481445,488.725342 
	C453.439636,483.820740 450.217102,480.665375 448.487000,477.126251 
	C447.536469,475.181793 444.773254,475.975891 443.083923,477.130463 
	C424.268707,489.989777 406.091858,484.707764 388.411011,474.813141 
	C378.294525,469.151733 371.701233,459.999878 366.388245,449.759766 
	C364.051483,445.255951 360.332764,441.502838 359.253662,436.261993 
	C359.008942,435.073547 357.915833,433.724854 356.325348,434.099579 
	C354.773102,434.465302 353.808441,435.788879 353.420593,437.279053 
	C352.295624,441.601044 350.839600,445.774811 348.374176,449.528839 
	C341.878754,459.419403 333.254578,466.035919 321.100525,467.245239 
	C316.210144,467.731873 311.875305,466.137604 308.012085,463.444397 
	C305.384186,461.612366 303.720551,461.643799 301.917450,464.431396 
	C291.434418,480.638245 280.030090,496.427399 274.007111,514.971619 
	C270.182770,526.746582 266.145142,539.155884 271.540405,551.455261 
	C277.192535,564.340454 286.685944,574.453796 297.720825,583.075439 
	C300.466064,585.220337 303.396179,587.128601 306.223755,589.133240 
	C312.681183,585.036865 315.160309,585.970520 317.411774,593.275940 
	C318.291229,596.129578 320.065063,598.091431 322.807892,599.456421 
	C324.334381,600.216187 326.382507,600.396973 327.561768,602.744446 
	C321.157837,603.910522 323.618225,607.203369 325.109650,610.996338 
	C330.227081,624.010986 336.945251,636.708435 334.883453,651.470886 
	C334.683594,652.902039 335.231934,654.060608 335.848602,655.257996 
	C336.448486,656.422974 336.958282,657.634338 337.468750,658.740906 
	C336.641846,660.751709 332.923584,659.526611 333.523529,662.573059 
	C334.049500,665.243958 336.579224,664.720398 338.365143,665.258850 
	C339.455017,665.587463 340.743774,665.841858 341.808167,665.580261 
	C354.226166,662.527649 366.896362,663.497620 379.458618,663.365479 
	C397.154907,663.179321 414.853119,663.159180 432.558258,664.043030 
	C442.943756,664.561462 453.386261,664.066406 463.786591,664.977844 
	C466.539001,665.219055 468.649689,665.692261 468.514526,669.983521 
	C456.812042,665.710999 445.185394,670.287964 433.381500,668.440735 
	C427.316376,667.491577 420.057617,667.998779 413.294586,669.129272 
	C407.479126,670.101318 401.199158,668.105286 395.309082,668.860596 
	C383.592163,670.363037 371.857147,670.236633 360.157013,670.039673 
	C352.479645,669.910522 345.115173,672.237854 337.630554,671.982849 
	C330.750977,671.748474 327.418823,675.175598 323.761475,680.175049 
	C316.627045,689.927612 300.767822,698.173889 287.343201,694.551697 
	C285.030609,693.927673 282.547363,693.131958 280.548920,689.621460 
	C294.409851,691.415588 304.074677,685.907715 311.318848,674.592712 
	C306.217865,671.769775 301.506958,672.857849 297.174896,673.718445 
	C291.077026,674.929810 285.102417,675.801331 278.922943,674.752136 
	C277.807892,674.562805 276.573364,674.671387 275.461578,674.931458 
	C264.441681,677.509277 253.005432,676.820557 241.949295,679.319397 
	C237.998474,680.212341 233.751663,679.838013 229.637497,679.957947 
	C215.999832,680.355530 202.779800,684.366821 189.274185,685.071533 
	C178.621140,685.627441 168.480515,688.595947 157.989075,689.789490 
	C151.607117,690.515564 144.995453,691.429688 138.585602,692.908142 
	C129.044983,695.108765 119.141914,694.808655 109.549644,697.076416 
	C92.163513,701.186707 74.766403,705.414429 57.175121,708.435974 
	C45.228886,710.487793 33.585968,713.976196 21.597395,715.484497 
	C14.634911,716.360352 8.108320,718.192078 1.338091,720.865112 
	C1.000000,718.958313 1.000000,716.916687 1.000003,714.437500 
M339.933746,386.642365 
	C337.721985,384.932220 335.484558,383.286499 331.061981,383.379181 
	C337.035553,388.966156 343.056183,392.403717 348.801575,396.229828 
	C331.646088,396.106873 325.932648,379.674316 313.529114,371.269348 
	C318.780640,379.800415 324.024078,387.240265 331.704285,393.826782 
	C326.253967,394.415466 325.174774,390.931213 323.107849,388.533875 
	C314.531494,378.586700 307.700714,367.372314 299.934723,356.840027 
	C297.360962,353.349487 296.140808,349.020477 296.714600,344.539276 
	C297.855896,335.626160 299.439941,326.820435 303.256256,318.557251 
	C308.348267,307.531982 311.057892,295.619751 315.791443,284.459930 
	C319.807526,274.991608 322.464447,265.088226 325.484375,255.293121 
	C326.233307,252.863846 327.655670,250.308212 326.143097,248.213318 
	C324.527802,245.976105 322.226044,248.006668 320.266113,248.669296 
	C318.854218,249.146591 317.587341,248.995483 316.836395,247.557846 
	C315.972748,245.904495 316.599365,244.605499 318.132996,243.816422 
	C319.605103,243.058990 321.194946,242.534210 322.708191,241.852097 
	C327.601257,239.646454 332.009308,237.654892 332.373138,230.746216 
	C332.566681,227.071365 331.296234,222.954758 332.736847,219.856033 
	C335.115936,214.738464 334.732147,209.558243 335.207642,204.340485 
	C335.506927,201.056213 333.957886,200.044388 331.042877,200.670380 
	C322.317108,202.544205 314.633636,206.228500 308.788727,213.284424 
	C306.821472,215.659271 304.677979,218.079391 302.136047,219.750076 
	C295.253082,224.273911 292.127411,231.112442 290.571991,238.596405 
	C289.455627,243.967865 288.595337,245.785675 283.271454,243.934753 
	C277.846619,242.048721 273.948761,244.152206 269.827026,246.523712 
	C268.143036,247.492645 266.965790,249.322617 265.306427,250.357437 
	C256.469208,255.868515 249.588974,263.329041 245.026535,272.518188 
	C242.384216,277.840057 238.584152,283.992828 245.079803,289.706818 
	C245.984146,290.502319 246.219055,291.799164 245.322357,292.883118 
	C244.422211,293.971222 243.209610,293.794006 242.119049,293.271454 
	C238.123627,291.356934 234.061783,291.805756 230.688629,294.144287 
	C218.814438,302.376404 212.223206,314.062408 210.345688,328.219513 
	C208.901596,339.108368 215.776779,346.493103 226.859695,346.507690 
	C229.405380,346.511047 231.428116,347.045685 233.093964,348.911041 
	C234.053970,349.986053 234.841568,351.486725 233.501511,352.411865 
	C227.449081,356.590393 229.897568,362.851532 229.440872,368.337769 
	C228.896942,374.871948 232.544189,379.381165 237.582703,382.792419 
	C243.200882,386.596100 249.532883,387.813629 256.189972,386.535980 
	C259.305054,385.938141 261.716888,386.263123 263.258301,389.197235 
	C259.894775,395.330261 258.862671,398.538361 259.092346,402.015442 
	C259.450287,407.435120 264.525970,412.577545 268.156158,410.889862 
	C275.306244,407.565826 282.693604,406.970825 289.809052,409.892944 
	C295.427795,412.200409 299.631104,410.229645 304.173218,407.713013 
	C310.873566,404.000488 316.359650,398.699127 322.613495,393.578491 
	C323.886566,397.039246 329.321869,397.227417 328.679199,402.264130 
	C320.884888,400.694061 318.765381,402.466431 318.164825,410.034363 
	C317.894958,413.435211 318.388885,416.688049 319.259857,419.905579 
	C320.625275,424.949554 324.109894,427.518768 329.423950,427.745544 
	C331.572083,427.837219 333.759247,427.952118 335.837372,428.442871 
	C337.420197,428.816681 339.165283,429.678619 339.031860,431.739502 
	C338.890289,433.926361 337.187592,434.894684 335.255859,435.069183 
	C331.624359,435.397217 328.078796,435.538483 324.499542,433.958496 
	C318.611603,431.359436 311.220306,435.944000 310.100342,442.679565 
	C310.640594,442.945068 311.205231,443.279449 311.809723,443.509033 
	C313.711853,444.231537 316.655060,442.580872 317.544678,445.321533 
	C318.540771,448.390106 315.395477,448.831726 313.666412,450.202393 
	C309.285858,453.674988 309.530884,457.199982 314.198822,460.161469 
	C320.845520,464.378357 326.782867,463.648621 333.820221,456.814972 
	C336.922516,453.802460 340.753998,450.856018 341.872711,445.028290 
	C336.849030,447.191284 332.720428,448.894165 328.257172,449.147308 
	C325.738678,449.290100 322.908295,449.155670 321.713898,446.528168 
	C320.598633,444.074615 319.898651,441.247009 322.117706,438.894775 
	C323.527527,439.061188 324.223419,439.780487 324.772491,440.629547 
	C327.901184,445.467590 329.855621,445.617340 334.857849,442.264435 
	C346.674927,434.343689 352.402588,422.474213 356.144623,409.454529 
	C358.089050,402.689148 351.595398,391.747131 344.857330,389.398071 
	C343.265320,388.843048 341.691467,388.378387 339.933746,386.642365 
M195.573441,580.987061 
	C210.942429,577.100220 226.175980,572.841431 240.953003,565.205750 
	C227.358246,553.395813 211.998611,546.153870 197.574905,537.477478 
	C188.985596,532.310730 179.642548,528.444214 171.465851,522.541077 
	C170.554626,521.883240 168.970825,521.440491 169.395523,520.069092 
	C171.794312,512.323486 164.884872,508.814423 161.836060,503.686615 
	C157.760101,496.831329 153.331894,490.183197 149.428116,483.206543 
	C146.870514,478.635742 145.669861,473.388702 143.303497,468.994263 
	C138.966354,460.940033 134.889893,452.698914 130.419937,444.819702 
	C124.534882,434.446136 127.367653,425.340057 129.806915,415.649963 
	C131.499207,408.927246 135.921173,403.135895 137.041824,395.875183 
	C134.654358,396.861206 132.479721,397.531677 130.600052,399.021393 
	C122.142807,405.723969 109.344185,405.554688 101.326256,398.626526 
	C98.455200,396.145691 97.779991,393.092865 99.767036,389.689178 
	C101.233513,387.177246 102.745758,384.692017 104.445473,381.846924 
	C101.737801,382.053894 99.789650,382.797302 97.936623,383.781311 
	C99.031006,388.711670 95.308754,390.758575 92.264481,392.529846 
	C85.271935,396.598267 78.000504,400.138702 70.541298,403.390411 
	C60.366180,407.826019 53.107380,416.376556 45.169563,423.835205 
	C43.769787,425.150543 41.873821,426.662598 41.905518,429.032440 
	C42.161236,429.220917 42.351166,429.429962 42.413498,429.397034 
	C51.548622,424.579712 61.190891,420.442017 67.136497,411.287048 
	C67.627708,410.530670 68.161446,409.918091 69.032875,409.872070 
	C74.382332,409.589569 77.514198,405.650238 81.177757,402.583588 
	C83.858009,400.340088 86.460869,397.993927 89.249443,395.894348 
	C90.616783,394.864868 92.342659,394.574066 93.882484,395.849884 
	C95.345352,397.062042 94.051453,398.215851 93.825493,399.441406 
	C92.991531,403.964447 90.574585,407.208221 86.780197,409.837006 
	C81.882103,413.230438 79.648216,417.730743 79.865913,424.202057 
	C80.408699,440.337006 81.154251,456.425903 83.142387,472.457642 
	C85.792709,493.829010 92.446304,513.830872 103.126434,532.519897 
	C111.060867,546.404297 119.928131,559.674622 130.862030,571.347290 
	C139.645065,580.723816 150.149063,586.949829 163.805374,586.184265 
	C174.330215,585.594299 184.590851,583.678650 195.573441,580.987061 
M250.916061,449.345581 
	C245.288101,456.405701 240.103485,463.763275 235.076385,471.881500 
	C238.282349,472.162476 239.858429,470.933929 241.338837,469.212402 
	C243.204865,467.042603 245.459808,464.422150 248.350311,467.246063 
	C251.298477,470.126251 248.282547,472.271149 246.490692,474.311310 
	C245.285706,475.683289 243.759659,476.794128 242.668686,478.241486 
	C239.713242,482.162140 234.914993,484.317780 232.248001,488.400818 
	C233.958344,490.887451 235.889389,490.727478 237.921661,490.328064 
	C248.963089,488.157806 259.704559,485.965271 268.962524,478.324890 
	C275.233398,473.149719 281.338196,468.006165 286.697876,461.910522 
	C288.428223,459.942627 290.379089,457.530457 292.687531,456.828064 
	C299.746887,454.680054 299.833557,454.964935 299.827271,447.704926 
	C299.821838,441.420227 305.005768,433.883026 310.862396,431.660339 
	C315.651123,429.842926 316.932159,426.930908 313.729889,423.512909 
	C310.636414,420.210999 310.708588,416.791962 311.403717,412.919312 
	C311.680084,411.379791 312.388153,409.712677 311.098022,408.337067 
	C310.628632,408.337067 310.243011,408.221130 309.990753,408.355530 
	C308.085602,409.370453 306.231598,410.482788 304.315094,411.474823 
	C297.347961,415.080933 297.384033,415.033569 302.030945,420.873413 
	C302.932495,422.006439 303.402313,423.500610 303.986298,424.864594 
	C304.917542,427.039581 305.151337,429.146149 302.617554,430.428284 
	C300.085022,431.709717 298.441895,430.357239 297.372223,428.220001 
	C293.517853,420.518463 288.210632,416.359161 279.270569,420.364807 
	C278.235626,420.828491 277.000885,421.058167 275.864197,421.040894 
	C273.077820,420.998535 271.050842,422.293457 269.545929,424.428314 
	C263.705597,432.713379 256.287170,439.814667 250.916061,449.345581 
M54.803234,360.688660 
	C67.633041,371.559998 82.114037,376.884338 99.184471,374.893250 
	C99.094940,371.540497 97.822784,369.755432 96.398186,368.162231 
	C91.731773,362.943420 87.281212,357.758545 81.325081,353.556763 
	C72.879326,347.598602 63.818172,344.333862 53.991657,342.472473 
	C50.815651,341.870850 47.296135,342.309814 45.311443,344.982330 
	C43.102531,347.956757 45.625492,350.744598 47.370712,353.025818 
	C49.378376,355.650085 51.943390,357.847961 54.803234,360.688660 
M339.849213,171.305374 
	C341.937439,166.785233 344.973694,162.891464 348.083923,159.068512 
	C350.539978,156.049576 352.181488,152.384903 352.947144,148.897919 
	C353.576324,146.032486 349.237549,145.847992 347.051178,144.561279 
	C345.691772,143.761246 346.392700,141.587173 344.555481,141.060242 
	C337.897797,146.320892 331.909729,152.056717 327.333801,159.422226 
	C323.333893,165.860504 321.430725,172.532898 322.587158,179.817825 
	C323.514404,185.658737 327.094452,192.335022 336.309540,191.844589 
	C334.850372,188.064606 334.994843,184.352722 336.849121,180.823990 
	C337.386780,179.800781 337.135498,178.786972 336.598267,177.976822 
	C334.220184,174.391052 336.348389,172.930603 339.849213,171.305374 
M111.233963,387.850372 
	C110.034798,390.181458 108.082535,392.652863 110.441956,395.105011 
	C112.683784,397.434906 115.517006,396.809937 118.314789,395.673981 
	C124.428719,393.191681 130.486267,390.452026 136.800354,388.624023 
	C140.820831,387.460083 142.755966,385.658234 142.729996,381.539520 
	C142.717728,379.595673 143.036224,377.649750 143.169678,376.110504 
	C139.187073,372.111389 135.282303,370.220032 130.077698,373.231903 
	C123.318459,377.143463 116.523361,380.914398 111.233963,387.850372 
M561.256592,412.935364 
	C564.849182,413.016418 565.805298,409.708008 565.878174,407.679443 
	C565.960510,405.387939 564.983521,402.320709 562.294128,401.018188 
	C559.281616,399.559204 558.331909,402.606812 556.732422,404.000458 
	C554.704895,405.767029 553.449158,408.093628 552.506226,410.643524 
	C551.795959,412.564423 550.716003,414.373199 552.957764,415.919434 
	C555.023743,417.344421 556.730591,416.034668 558.381042,414.968231 
	C559.190491,414.445251 559.850220,413.690704 561.256592,412.935364 
M368.454010,128.249908 
	C363.483826,128.097763 359.740936,130.686050 356.144653,133.680862 
	C354.077118,135.402618 353.823792,137.167755 355.701569,139.127731 
	C357.590546,141.099426 359.415192,140.948425 361.122864,138.857574 
	C363.520905,135.921402 365.982239,133.054703 368.980225,130.684326 
	C369.740814,130.082977 370.423676,129.183701 368.454010,128.249908 
M60.524960,396.820801 
	C69.364304,394.013672 74.968582,390.674225 78.131775,386.320465 
	C68.986923,387.366913 61.492855,391.613953 54.569664,397.974487 
	C56.904816,398.612091 58.121872,396.852814 60.524960,396.820801 
M507.281708,334.267700 
	C505.911530,332.370026 504.173279,331.571564 502.240723,333.251587 
	C500.518707,334.748596 499.447784,336.713867 501.037964,338.962677 
	C502.270691,340.705933 503.553223,342.989716 506.015472,342.507355 
	C508.726349,341.976318 508.321075,339.248627 508.486755,337.201202 
	C508.546539,336.462616 507.934723,335.669617 507.281708,334.267700 
M313.369293,615.064880 
	C315.259125,618.064575 314.658966,622.390381 319.026093,625.362610 
	C316.408325,617.838379 316.035217,610.669067 311.035248,604.236267 
	C310.317596,608.519470 313.432678,611.051575 313.369293,615.064880 
z"/>
<path fill="#000000" opacity="1.000000" stroke="none" 
	d="
M881.000000,746.583374 
	C875.460022,745.495117 869.958191,743.901123 864.484131,742.135986 
	C857.999329,740.045105 851.330383,738.271851 844.495667,737.373840 
	C838.743591,736.618042 833.161804,735.165894 827.550964,733.607910 
	C823.185730,732.395874 818.076965,732.164612 814.060791,730.712708 
	C808.221558,728.601868 802.376343,729.132324 796.661377,727.864075 
	C783.672913,724.981812 770.455872,723.616089 757.302490,721.785522 
	C741.119751,719.533386 724.877991,718.148926 708.611267,716.736511 
	C701.331238,716.104370 694.217773,715.411499 686.955017,716.125183 
	C685.172913,716.300293 683.293213,716.296021 681.573547,715.263672 
	C680.334045,711.884399 683.849426,711.382690 685.298828,709.317749 
	C683.562744,706.835144 680.730103,706.539368 678.426636,705.476990 
	C677.144653,706.568604 677.310974,707.771851 677.450684,708.906067 
	C677.959473,713.035583 675.676392,714.841797 672.010132,715.006104 
	C667.481812,715.208984 666.689331,717.127930 667.307617,721.485107 
	C669.113647,734.212158 663.324219,741.231445 650.869507,742.389099 
	C649.685608,742.499207 648.382080,742.894287 647.513550,742.052856 
	C642.963867,737.645508 637.314819,739.139282 632.052307,739.256348 
	C624.765930,739.418274 620.146179,735.986450 617.330933,729.632690 
	C616.640686,728.074768 615.863586,726.731079 614.475342,725.657776 
	C611.546692,723.393433 610.967041,720.106689 611.261353,716.704224 
	C611.391724,715.197327 611.876404,713.714539 611.015625,712.353149 
	C606.637329,705.428101 606.987427,697.651428 606.567993,689.908691 
	C606.137817,681.966919 606.609680,674.114014 607.894592,665.757690 
	C602.278137,666.938171 598.324829,669.658752 594.677490,673.053467 
	C590.384766,677.048950 585.649353,678.312927 580.066589,675.482422 
	C572.968201,671.883545 572.044983,666.706421 576.322144,659.846619 
	C582.848755,649.378906 591.406982,641.035461 601.130737,633.723083 
	C605.354370,630.546875 607.937988,626.367737 610.075256,621.111267 
	C606.227173,621.003540 604.214844,623.170654 602.064819,624.796936 
	C596.139648,629.278748 589.524170,631.469238 582.117859,631.700562 
	C577.986877,631.829529 575.466003,630.076172 574.238647,626.251282 
	C571.958252,619.145020 575.081787,609.031067 581.033569,604.599976 
	C589.014160,598.658386 597.671631,594.274963 607.839600,593.765686 
	C611.135803,593.600586 613.743713,591.707275 612.411011,588.897278 
	C609.495789,582.750671 613.159729,578.193115 615.291016,573.508972 
	C618.508606,566.437439 622.002502,559.101807 631.298157,558.038208 
	C637.007507,557.385010 642.353149,558.243408 646.703735,562.203796 
	C652.514954,567.493835 652.652954,567.835083 658.541809,562.417725 
	C666.361938,555.223572 673.358948,547.107788 682.698608,541.679565 
	C683.331787,541.311523 683.681824,540.456360 684.801147,538.995667 
	C679.956177,538.294617 676.096130,536.306946 672.021118,535.611572 
	C660.519226,533.648621 649.876465,528.396729 638.439941,526.666565 
	C625.720215,524.742249 613.957703,519.527649 601.411865,517.208313 
	C601.084534,517.147766 600.689514,517.188477 600.438660,517.017151 
	C592.775208,511.781708 588.269043,516.415100 582.918579,521.629517 
	C569.953979,534.264587 556.268066,546.156433 543.044800,558.531616 
	C539.553345,561.799194 536.687012,565.734741 533.218628,569.726318 
	C534.707886,572.333618 540.455627,568.930176 541.691040,573.824707 
	C540.545837,576.787354 537.478821,577.070129 534.948242,578.098572 
	C527.760437,581.020081 527.138245,581.936951 527.149719,589.494934 
	C527.175537,606.492310 527.924683,623.545959 531.685791,640.069519 
	C534.940979,654.370056 538.538086,668.932495 548.182251,680.836365 
	C548.561035,681.303955 548.627441,682.024597 548.826050,682.589355 
	C544.249390,685.354980 538.604980,684.971497 534.987000,681.602600 
	C528.313110,675.388123 523.897217,668.170715 521.369507,659.051514 
	C519.074829,650.772949 516.579773,642.575623 514.645447,634.167969 
	C513.719604,630.143677 515.219666,626.373474 514.200562,622.413635 
	C513.729614,620.583801 514.282593,618.132080 513.649475,616.109924 
	C511.149567,608.124634 513.116333,599.967346 512.544067,591.915039 
	C512.441040,590.465393 513.206604,588.737061 511.683929,587.783997 
	C509.892731,586.662720 508.406708,588.083435 507.254730,589.140930 
	C501.485840,594.436401 495.366364,599.240845 488.762726,603.465515 
	C486.471100,604.931580 484.319672,606.236450 481.131592,605.641846 
	C483.201843,599.226929 488.304382,595.290100 492.782898,591.611877 
	C496.040436,588.936462 498.728302,586.048340 501.261200,582.873352 
	C504.883820,578.332397 510.924957,577.197754 514.746643,572.830017 
	C521.146484,565.515625 527.922180,558.530701 534.498230,551.369080 
	C535.552612,550.220825 536.741882,549.386963 538.208862,548.957092 
	C539.843018,548.478333 541.611328,547.880676 542.444275,546.468994 
	C546.101196,540.270630 552.034607,536.205078 556.632141,530.909790 
	C561.359802,525.464661 567.461121,521.643005 572.718201,516.834229 
	C578.988037,511.099060 578.982422,511.097534 573.071228,505.037964 
	C572.398682,504.348541 571.421143,503.825836 571.692383,502.120331 
	C577.112061,500.511261 582.765259,502.414337 587.331055,504.264862 
	C601.239929,509.902069 615.580383,514.032043 629.941040,518.066650 
	C648.826416,523.372498 667.935242,527.877930 686.893433,532.932373 
	C691.464722,534.151184 693.898438,533.050720 696.591431,528.915344 
	C702.296021,520.155396 709.220032,512.423157 717.733582,505.961792 
	C731.465576,495.539795 746.713928,487.951111 761.980408,480.288361 
	C770.124512,476.200623 777.527222,470.611511 786.367493,467.953278 
	C790.485291,466.715027 794.736877,465.903870 798.953430,465.021423 
	C800.484985,464.700897 801.944519,465.049744 802.893127,467.145050 
	C801.321716,470.036285 798.140381,471.427765 795.446167,473.092010 
	C789.837402,476.556732 784.155884,480.713318 778.375427,482.910522 
	C769.573914,486.256042 762.054077,491.612854 753.641052,495.424255 
	C745.536133,499.096100 737.130493,502.810852 730.453857,508.703308 
	C725.314209,513.239258 719.296265,517.151489 715.715942,523.270569 
	C715.962341,524.975281 718.520142,523.881226 718.372925,526.415771 
	C715.535889,530.359985 708.820007,530.710388 706.275391,536.390869 
	C710.163940,539.177002 714.515259,539.243225 718.711975,539.805054 
	C720.660278,540.065918 723.360718,539.803833 723.306702,542.469727 
	C723.253174,545.112244 720.460754,545.013550 718.591675,544.956299 
	C714.801514,544.839905 710.674500,545.173706 707.309814,543.797607 
	C698.975647,540.388977 692.443604,542.579102 685.792603,547.927124 
	C676.063965,555.749878 667.057861,564.351379 657.749878,572.626831 
	C654.492920,575.522461 654.594604,579.226135 658.355591,580.588074 
	C662.885315,582.228516 664.530823,585.283936 664.824829,589.600342 
	C665.066895,593.155151 666.628662,594.691956 670.464783,594.956665 
	C679.018250,595.547058 685.469299,600.142273 690.007385,607.240417 
	C692.138977,610.574585 694.384155,610.849243 697.295410,608.664001 
	C701.502808,605.505798 705.571594,602.308533 709.322571,598.468262 
	C719.063110,588.495789 728.909607,578.584351 739.704041,569.678040 
	C746.100647,564.400391 752.633301,559.292786 758.752869,553.650635 
	C767.417542,545.661926 776.782227,538.431335 785.429382,530.424988 
	C794.675903,521.863586 803.396912,512.639099 808.118164,500.693298 
	C809.604309,496.933105 810.517822,492.502686 808.907349,487.819305 
	C814.420959,488.342499 819.120361,490.703186 820.324463,495.081329 
	C821.717163,500.145142 822.537354,506.106598 817.959167,510.854218 
	C814.522156,514.418396 813.286133,519.375000 810.422546,523.452332 
	C807.021851,528.294250 802.814148,532.175903 798.795837,536.234741 
	C791.627075,543.476074 783.671753,549.896118 775.706360,556.279663 
	C766.340698,563.785400 757.061951,571.408081 747.943726,579.211609 
	C738.890747,586.959351 730.074646,594.984192 721.182190,602.918457 
	C720.200195,603.794556 719.362610,604.852051 719.162354,606.303772 
	C730.352234,614.184326 734.028198,625.349915 733.126892,638.463196 
	C732.497253,647.623169 727.526489,653.919983 719.691284,658.138550 
	C715.185730,660.564331 711.151978,658.372253 707.557068,655.976868 
	C704.473572,653.922302 701.671753,653.836487 698.256653,654.790771 
	C695.265015,655.626770 692.099365,656.484314 688.906555,655.789917 
	C687.099304,655.396851 686.081909,656.017700 685.337585,657.605835 
	C684.595825,659.188416 684.603638,660.250061 685.632874,662.049133 
	C691.192261,671.766663 697.213867,681.379578 701.246277,691.740723 
	C703.138611,696.603271 707.723999,703.239502 700.077637,708.881104 
	C706.064941,709.641968 711.259583,708.708679 715.840942,709.825684 
	C722.114868,711.355347 728.402710,710.855713 734.582520,711.314392 
	C744.718872,712.066650 754.325195,717.041077 764.814453,714.827332 
	C766.898438,714.387573 769.557129,715.002686 771.525391,715.984375 
	C778.463440,719.444580 786.029053,718.722168 793.317810,719.841492 
	C798.233887,720.596375 803.192993,721.430847 807.938721,722.869812 
	C823.952332,727.725586 840.752747,729.175781 856.693420,734.102539 
	C864.580200,736.540100 872.844849,737.962708 880.647339,741.889771 
	C881.000000,743.388916 881.000000,744.777771 881.000000,746.583374 
M719.184021,619.751709 
	C723.446960,631.599792 720.189575,641.575562 710.738525,650.078186 
	C717.907776,651.289001 723.882263,647.776062 726.064087,641.717590 
	C729.795959,631.354858 727.353210,623.525635 718.501648,618.476074 
	C712.947083,615.325073 708.983093,615.297424 706.000305,618.958984 
	C701.291931,624.738770 696.714172,630.643433 692.422729,636.735840 
	C690.647766,639.255676 688.604065,641.771790 687.929993,644.985291 
	C687.683044,646.162292 687.136719,647.524048 688.462219,648.077698 
	C692.009521,649.559326 695.258057,647.759888 698.511719,646.679810 
	C700.601379,645.986023 701.594971,644.610596 701.378235,642.123474 
	C700.919800,636.864136 702.494324,631.951172 704.823914,627.301941 
	C708.189941,620.584229 712.661377,618.016602 719.184021,619.751709 
M684.960693,683.510193 
	C684.554871,682.596924 684.207275,681.652161 683.733948,680.775330 
	C680.349609,674.505920 677.324768,668.280334 676.815735,660.827637 
	C676.549744,656.933533 676.460327,651.944458 672.229370,649.398804 
	C668.130798,646.932678 665.467407,643.385986 664.015991,639.064697 
	C662.555664,634.716675 660.777649,634.101013 656.330505,635.824036 
	C646.510803,639.628723 634.152222,637.505859 631.123352,623.636841 
	C630.453979,620.571838 628.842896,619.038025 625.944580,618.377563 
	C622.954224,617.696106 621.433350,619.335571 619.824890,621.517822 
	C615.971619,626.745728 614.462585,633.142212 611.027344,638.572266 
	C610.231934,639.829590 610.015869,641.734802 608.104126,641.327576 
	C604.773804,640.618103 602.714966,642.706055 600.591003,644.447571 
	C594.876953,649.132629 590.763184,655.264771 586.260437,661.017212 
	C585.162781,662.419617 584.379395,664.428711 585.264038,666.544067 
	C588.039673,666.262634 589.780029,664.539185 591.285522,662.909485 
	C596.445984,657.323120 603.071106,653.132812 607.098328,646.486633 
	C609.542480,642.453125 613.211304,641.893127 617.071655,643.347168 
	C621.091553,644.861328 621.214539,649.007812 620.784729,652.277954 
	C619.608948,661.222839 619.109863,670.180664 619.235962,679.166870 
	C619.431641,693.112610 619.690430,707.088989 624.936829,720.338684 
	C626.639465,724.638550 629.038452,728.492249 632.507385,731.467285 
	C634.909790,730.169617 634.726746,728.750488 634.043762,726.985718 
	C629.012512,713.984802 628.521484,700.156921 626.802979,686.555725 
	C626.285461,682.460083 628.863892,680.230164 632.229370,679.263794 
	C635.420105,678.347656 638.233704,679.315918 640.390503,682.380676 
	C648.298340,693.617371 649.741333,706.188171 648.591614,719.395630 
	C648.171143,724.225403 648.839722,728.771423 652.389893,732.714050 
	C655.057312,730.194458 654.976746,727.505859 654.629395,724.877075 
	C653.375244,715.386841 652.379700,705.843201 649.451111,696.658203 
	C647.611511,690.888794 649.730774,688.142273 655.905945,688.031189 
	C657.346436,688.005249 658.649475,689.358398 660.425415,688.251465 
	C659.797546,686.208374 659.185791,684.153625 658.531677,682.112427 
	C658.118713,680.823730 657.656128,679.583191 658.842896,678.411194 
	C662.573242,674.727356 672.020752,676.418579 674.092224,681.312622 
	C675.771729,685.280701 677.042297,689.476685 679.948914,692.744629 
	C682.465088,695.573608 684.843567,698.839783 689.582520,699.371948 
	C689.474487,698.053284 689.551758,697.222351 689.322021,696.487183 
	C688.035583,692.370239 686.675049,688.276428 684.960693,683.510193 
M610.013184,610.483276 
	C613.579529,606.463257 613.399597,604.157654 609.444153,603.192322 
	C600.387207,600.982117 583.072021,609.440247 579.303833,617.915405 
	C577.630920,621.678040 579.593994,624.629944 583.715149,624.242981 
	C585.660034,624.060425 587.574524,623.345032 589.455322,622.726868 
	C596.976501,620.255005 603.246216,615.620056 610.013184,610.483276 
M666.167725,607.448853 
	C664.981995,603.953552 662.193298,603.534363 659.472351,606.493835 
	C656.523010,609.701782 654.498718,613.482727 652.450134,617.315735 
	C648.095093,625.464233 644.208740,626.584290 637.410828,621.969849 
	C635.632996,626.189392 638.811829,627.821106 641.379883,629.194946 
	C650.844116,634.257935 660.746521,629.271790 662.969910,618.674805 
	C663.719666,615.101440 664.955200,611.630005 666.167725,607.448853 
M635.315735,586.897949 
	C637.761902,583.368164 640.466736,580.021118 643.726501,577.247620 
	C645.619324,575.637146 646.234924,574.149536 644.672668,572.211365 
	C641.269104,567.988831 636.254089,567.263977 631.566528,567.854187 
	C627.139587,568.411621 622.365417,569.975281 621.519226,576.064941 
	C628.874084,578.846313 628.423706,586.150757 630.457092,592.267944 
	C632.872498,591.092407 634.625854,589.983032 635.315735,586.897949 
M678.971130,629.442261 
	C680.143005,625.410461 682.639221,622.062866 684.707153,618.504822 
	C686.019592,616.246582 687.562622,614.057373 684.404358,612.230164 
	C681.200134,610.376404 679.995422,613.431152 679.415833,615.235657 
	C677.873291,620.038086 674.753967,623.508789 671.294922,626.874634 
	C667.019714,631.034790 667.682739,634.673889 671.111450,640.297791 
	C673.033020,643.449463 675.226807,643.076782 677.025330,639.769165 
	C678.677429,636.730957 678.096375,633.325623 678.971130,629.442261 
M640.757202,595.679932 
	C641.146118,594.884399 642.243591,594.176697 640.865723,592.973572 
	C635.982117,596.054810 633.472900,601.246582 629.965576,605.532410 
	C628.775513,606.986572 627.573547,608.854370 629.790344,610.187561 
	C631.849365,611.425903 633.136230,609.732483 634.053711,608.035522 
	C636.178772,604.105103 638.268555,600.155457 640.757202,595.679932 
M619.622498,597.612610 
	C623.302917,596.554138 623.159485,593.264526 623.711914,590.445923 
	C623.949036,589.236023 623.437439,588.100464 622.147339,587.675110 
	C620.870667,587.254333 619.571716,587.876587 619.179993,588.897095 
	C618.114746,591.671692 616.122742,594.557312 619.622498,597.612610 
M710.240173,632.889160 
	C709.208313,635.732422 706.296082,638.117676 707.878357,642.138794 
	C712.642639,638.930725 714.774780,634.924927 714.860718,629.581177 
	C712.580566,629.598877 711.756714,631.166077 710.240173,632.889160 
M671.430664,611.813049 
	C671.360779,613.272400 669.678406,614.812744 671.665771,616.238892 
	C673.826843,615.739746 674.012085,613.754761 674.632629,612.189148 
	C674.984314,611.301697 675.025818,610.134949 673.825073,609.731812 
	C672.627014,609.329529 672.136780,610.345093 671.430664,611.813049 
z"/>
<path fill="#000000" opacity="1.000000" stroke="none" 
	d="
M1.000000,285.416656 
	C21.112949,280.456299 39.688553,271.833893 58.306469,263.341644 
	C66.247688,259.719421 74.328781,259.543915 81.941887,263.473877 
	C89.698135,267.477753 97.958885,270.065948 106.170715,272.409454 
	C125.848419,278.025085 145.817902,282.694489 166.286545,284.414917 
	C177.545807,285.361267 188.707474,287.644318 200.083694,287.093750 
	C201.697662,287.015686 203.420456,287.435913 205.484879,285.661041 
	C201.829636,282.115631 197.478729,279.798767 193.105606,277.826965 
	C173.497986,268.986145 152.897675,264.306366 131.397415,263.131561 
	C123.634880,262.707397 115.831787,261.663391 108.366966,259.079224 
	C102.071068,256.899689 100.088692,253.971237 100.305023,247.259003 
	C100.566467,239.146927 104.035034,231.936584 106.500031,224.432510 
	C111.269760,209.912216 116.730293,195.618256 119.251160,180.409744 
	C123.294594,156.015503 121.686623,132.212677 113.393730,108.832100 
	C102.264183,77.454025 80.655418,55.455231 52.271328,39.232498 
	C36.283710,30.094889 19.364908,23.329319 1.380772,18.065874 
	C1.000000,16.611111 1.000000,15.222222 1.000000,13.416666 
	C11.173459,15.582731 20.848387,19.515493 30.596148,23.363630 
	C39.933525,27.049757 48.611473,31.825308 57.307438,36.701309 
	C75.410194,46.851891 90.475082,60.370537 103.121536,76.786446 
	C119.136574,97.574982 126.050743,121.309311 127.524673,147.190369 
	C128.445724,163.363403 127.250458,179.371979 123.245224,194.838440 
	C120.498550,205.444839 118.306381,216.342987 113.729965,226.546265 
	C110.835556,232.999466 109.223366,240.089081 107.587334,247.023331 
	C106.539536,251.464355 109.410980,254.629440 114.661705,255.368362 
	C123.400406,256.598175 132.189774,257.464691 140.934753,258.653778 
	C158.761703,261.077820 176.145370,264.917938 192.551788,272.824097 
	C200.498749,276.653717 208.311386,280.646637 215.917999,285.078491 
	C217.780334,286.163544 219.955551,287.162903 219.234741,289.965698 
	C218.549164,292.631500 216.184998,292.233276 214.298477,292.285522 
	C199.803726,292.687042 185.355255,291.857727 170.985016,290.028381 
	C147.700348,287.064209 124.591049,283.137878 102.160690,275.983643 
	C95.823257,273.962280 89.357994,272.100647 83.374336,269.271210 
	C75.624092,265.606445 68.553078,266.193146 60.880356,269.532349 
	C47.178329,275.495575 33.735569,282.263702 19.179739,285.977203 
	C13.428414,287.444489 7.921807,290.084503 1.413454,290.072266 
	C1.000000,288.611115 1.000000,287.222198 1.000000,285.416656 
z"/>
<path fill="#000000" opacity="1.000000" stroke="none" 
	d="
M1.000000,643.444153 
	C6.024706,643.170715 9.169496,646.372498 10.922034,653.533813 
	C12.181156,658.678833 13.354529,663.863281 14.175364,669.091492 
	C14.894733,673.673401 17.544207,674.697876 21.595821,674.229431 
	C26.378597,673.676392 31.171547,673.030212 35.974510,672.877258 
	C42.475471,672.670349 44.723503,674.757019 46.116436,681.303833 
	C46.450443,682.873718 46.598484,684.569214 48.108418,685.871887 
	C50.789303,683.886414 51.035667,680.778992 52.032463,678.051331 
	C52.431717,676.958801 52.930264,675.795349 54.392712,675.845703 
	C55.614883,675.887756 56.219391,676.776123 56.154987,677.845215 
	C55.744392,684.661499 55.536068,691.581726 50.507366,697.013428 
	C47.542068,700.216370 45.685341,699.848633 43.909847,695.846741 
	C42.488350,692.642822 41.261089,689.358032 41.050961,685.822449 
	C40.855007,682.525452 39.248760,681.101379 35.934437,681.166626 
	C30.244677,681.278625 24.685562,682.256836 19.157673,683.441956 
	C16.186687,684.078857 15.505147,686.442871 15.268825,689.121338 
	C14.977304,692.425537 14.628671,695.732727 14.094684,699.004395 
	C13.753450,701.095032 13.293110,703.283325 10.989948,704.302612 
	C8.968279,703.786011 9.024655,702.345520 9.150321,700.770203 
	C9.388090,697.789429 9.599297,694.803223 9.696858,691.815308 
	C9.945324,684.205750 9.709188,683.971558 1.411063,682.998108 
	C1.000000,679.969421 1.000000,676.938782 1.366933,673.581177 
	C4.760719,673.488770 9.247872,675.716125 8.514078,669.726074 
	C7.831805,664.156433 6.125554,658.714111 4.909559,653.207031 
	C4.413999,650.962769 3.268852,650.025940 1.000000,651.000000 
	C1.000000,648.629456 1.000000,646.258850 1.000000,643.444153 
z"/>
<path fill="#000000" opacity="1.000000" stroke="none" 
	d="
M411.197693,367.043701 
	C405.801910,365.674225 400.557892,365.561523 395.760193,363.470245 
	C379.139099,356.224976 369.128143,343.110657 362.937042,326.602234 
	C361.653931,323.180786 360.638306,319.656403 359.290436,316.262421 
	C357.183289,310.956573 354.709839,310.339600 350.445557,313.986328 
	C348.435852,315.705017 346.610748,317.637817 344.653839,319.420715 
	C343.380402,320.580872 341.936096,320.756958 340.632721,319.517120 
	C339.202637,318.156738 339.114868,316.545563 340.453217,315.087982 
	C343.374878,311.906036 346.132355,308.504517 349.425690,305.754028 
	C352.180664,303.453186 355.163025,305.357513 357.702728,306.930542 
	C362.484985,309.892456 367.147491,313.047028 371.879974,316.090088 
	C374.636536,317.862579 377.507690,318.452942 380.885864,317.859253 
	C392.591187,315.802002 404.385529,316.130585 416.154022,317.309906 
	C420.506958,317.746094 424.548004,314.942230 428.960754,316.366394 
	C430.027405,316.710663 431.600800,316.135529 432.219574,317.216125 
	C436.469574,324.637939 441.767944,319.823883 446.355499,318.123657 
	C449.151306,317.087494 451.396210,314.373413 452.957916,311.563202 
	C453.825012,310.002838 454.156006,307.604828 456.697662,308.900116 
	C459.080963,310.114624 460.798615,312.422943 459.598785,315.036530 
	C458.359192,317.736664 457.245819,320.744995 453.540253,321.717041 
	C446.830444,323.477173 444.263947,329.159790 444.550446,335.085480 
	C445.069122,345.813232 440.481537,353.437195 431.984344,358.783783 
	C425.787903,362.682648 419.901215,367.983643 411.197693,367.043701 
M386.311951,328.530396 
	C384.754944,329.728271 385.796112,330.802551 386.416504,331.966675 
	C388.208221,335.328674 390.302277,338.591614 391.588104,342.143097 
	C392.789703,345.462006 395.124115,346.362366 398.044006,346.487976 
	C407.266266,346.884735 416.236511,345.871185 424.438324,341.149872 
	C428.318909,338.915985 429.973969,335.168457 432.220825,330.712677 
	C416.370239,332.038208 401.583130,331.793793 386.311951,328.530396 
M403.260223,360.450104 
	C408.951447,361.629547 414.211975,360.236786 419.350983,357.706451 
	C410.315582,357.389587 401.364532,356.765961 391.187012,354.227509 
	C395.329529,357.737610 398.730957,359.292664 403.260223,360.450104 
M369.617035,325.167572 
	C371.818726,329.528717 373.115692,334.412659 377.127838,337.755005 
	C375.073517,331.913208 374.301086,325.456085 369.433655,320.339203 
	C368.045715,322.512024 369.110077,323.462799 369.617035,325.167572 
M427.036774,351.345642 
	C428.693573,349.633606 432.104126,349.867676 432.855621,345.307648 
	C429.236603,348.272339 425.132812,348.244781 422.919586,351.788177 
	C424.343536,352.656647 425.337769,351.648743 427.036774,351.345642 
z"/>
<path fill="#000000" opacity="1.000000" stroke="none" 
	d="
M760.469360,458.492462 
	C751.461975,456.252380 742.548157,456.982208 733.854187,455.428925 
	C718.333618,452.656006 702.552368,452.286316 686.884460,450.862274 
	C667.109192,449.064941 647.307800,447.814362 627.454773,447.221313 
	C616.369751,446.890198 605.249512,446.635864 594.292114,444.516083 
	C591.029175,443.884857 588.126221,442.701050 585.331848,439.927399 
	C589.562317,438.097076 593.433044,437.988373 597.272888,438.927612 
	C600.060730,439.609497 602.323120,439.823456 604.391663,437.239960 
	C606.337463,434.809784 608.509094,435.987854 610.471741,437.608032 
	C616.292114,442.412659 626.283447,442.044342 632.541626,436.646515 
	C631.461792,433.470093 628.313538,430.262604 631.281494,426.625305 
	C635.126648,421.913086 639.487061,417.728363 645.907043,417.015503 
	C650.834839,416.468414 652.314087,418.124664 651.825745,423.009796 
	C651.562073,425.647064 651.044250,428.229492 649.302490,430.724060 
	C653.051025,433.118103 655.920593,431.147461 658.542480,429.387085 
	C661.677429,427.282166 663.994568,424.453644 663.573792,420.264191 
	C662.645264,411.019196 649.328674,401.421326 640.199524,403.377533 
	C638.441284,403.754272 637.348877,404.962494 636.149475,406.128906 
	C632.864868,409.323273 628.974609,411.593597 624.593933,412.833405 
	C621.707947,413.650269 618.526184,413.262238 617.191833,410.363037 
	C615.965027,407.697418 618.716003,406.476135 620.572693,405.038452 
	C624.282898,402.165588 628.042358,399.457520 632.657715,398.217041 
	C635.496399,397.454102 635.822021,395.561066 634.770386,393.203949 
	C632.373291,387.831238 628.282166,384.053345 623.253906,381.184967 
	C620.931702,379.860260 619.525391,381.427124 618.068848,382.817932 
	C613.743408,386.948059 608.813965,389.866638 602.731323,390.460052 
	C601.743469,390.556396 600.675598,390.824371 599.767883,390.571228 
	C596.397400,389.631409 592.340027,388.765991 591.573486,384.956696 
	C590.767822,380.952942 593.810608,378.100922 597.130859,376.276093 
	C600.472961,374.439240 604.008057,372.877747 607.599915,371.589722 
	C612.201782,369.939423 611.232483,367.191528 608.817932,364.861847 
	C603.410889,359.644836 597.509033,354.969635 589.937317,353.252289 
	C585.318726,352.204712 580.621155,351.505280 575.690430,350.600159 
	C576.495300,348.356445 577.958496,347.904419 579.707092,347.997620 
	C590.702637,348.583557 601.460327,349.647400 611.033142,356.196045 
	C616.091553,359.656464 619.559265,363.943329 621.600525,369.502350 
	C622.377441,371.618225 623.101929,373.389557 625.381775,374.381256 
	C633.868469,378.072784 640.047424,383.893097 642.374268,393.223267 
	C643.037659,395.883179 644.907349,397.472534 647.750061,397.687897 
	C657.804321,398.449615 663.892029,404.678375 668.560791,412.824890 
	C670.991760,417.066711 670.262573,421.228668 667.745667,425.088898 
	C661.976990,433.936249 653.205627,437.341461 643.152832,438.218750 
	C640.830017,438.421448 638.430298,438.252960 636.793274,441.431915 
	C641.391541,441.896179 645.727234,442.746887 650.052429,442.696381 
	C665.562012,442.515411 680.859009,444.957275 696.254395,446.134766 
	C708.634155,447.081573 721.047485,448.029053 733.317688,449.843323 
	C745.522583,451.647888 757.976501,452.242157 769.805481,456.313324 
	C772.288208,457.167786 774.992981,457.355133 777.555420,458.007202 
	C779.270142,458.443512 781.234436,458.817841 781.158752,461.909668 
	C774.164062,461.909821 767.536255,460.115356 760.469360,458.492462 
M605.447388,383.854736 
	C608.498962,383.286926 611.430298,382.566711 612.314636,378.314331 
	C607.846375,378.439941 604.124023,378.925171 601.654236,382.628723 
	C602.732971,384.023346 603.760315,383.861115 605.447388,383.854736 
M641.928223,430.395508 
	C643.364685,428.873688 645.168213,427.475525 643.983643,424.993561 
	C641.463928,424.311096 639.988525,425.679504 638.598816,427.111603 
	C637.649963,428.089508 636.806030,429.293274 637.841064,430.631958 
	C638.852539,431.940277 640.158264,431.621704 641.928223,430.395508 
z"/>
<path fill="#000000" opacity="1.000000" stroke="none" 
	d="
M724.433533,467.866333 
	C712.729919,473.576324 700.399536,475.745178 688.089111,478.117737 
	C680.142944,479.649200 672.146484,481.244019 664.189026,482.281128 
	C651.265564,483.965393 638.165100,484.671112 625.052979,482.961792 
	C616.599426,481.859741 608.208496,481.103973 600.870789,476.095428 
	C592.946655,470.686493 590.729980,463.487640 594.642273,454.914825 
	C596.533569,450.770538 600.174316,449.108215 604.688110,450.339630 
	C605.337341,451.782990 604.174683,452.462555 603.387451,453.234528 
	C597.965759,458.550934 599.087952,465.635773 605.834045,469.331329 
	C617.038086,475.468964 629.208801,476.205566 641.620178,476.352661 
	C657.964294,476.546356 674.006775,474.234985 689.784302,470.488464 
	C696.736267,468.837616 703.799561,467.933044 710.739380,466.279999 
	C715.908020,465.048859 721.369263,465.046265 726.935425,464.472260 
	C726.597839,466.843170 725.419556,467.018860 724.433533,467.866333 
z"/>
<path fill="#000000" opacity="1.000000" stroke="none" 
	d="
M453.080231,250.216675 
	C454.557648,248.253448 454.761047,246.820618 452.165527,246.460114 
	C449.665619,246.112854 447.293182,246.283844 447.324432,249.721191 
	C447.375885,255.377441 447.460052,261.034363 447.635376,266.687744 
	C447.671112,267.839722 448.187805,268.980042 446.843384,270.125793 
	C443.974823,270.033875 443.534485,267.570374 442.964203,265.431854 
	C441.796814,261.053955 441.555084,256.556549 441.859344,252.056442 
	C442.172424,247.425995 439.831207,246.393570 435.707794,246.760422 
	C426.619080,247.568985 417.409210,246.888733 408.430786,249.148026 
	C406.357849,249.669632 404.473572,249.198242 403.733368,246.666000 
	C402.989044,244.119659 404.255829,243.028473 406.396515,242.196350 
	C410.729919,240.511902 414.932770,238.453339 419.340485,237.010574 
	C422.772278,235.887283 426.416412,233.812637 429.647278,238.204636 
	C430.846954,239.835419 433.745239,238.912964 435.892731,238.923676 
	C445.689514,238.972504 455.512634,238.204681 465.260559,239.745544 
	C466.710205,239.974701 468.189911,240.490051 469.469086,241.206299 
	C471.230164,242.192383 472.958649,243.543762 472.485016,245.896820 
	C471.995087,248.330902 469.923737,247.422333 468.374969,247.408249 
	C465.464539,247.381805 464.813690,248.782791 465.014893,251.550583 
	C465.242126,254.676544 467.341888,257.858856 465.532806,260.927002 
	C462.800323,261.493317 463.038208,258.605743 461.285858,258.222931 
	C458.890717,258.798126 456.562775,262.796936 454.000336,259.573456 
	C452.086884,257.166412 450.120728,253.882202 453.080231,250.216675 
z"/>
<path fill="#000000" opacity="1.000000" stroke="none" 
	d="
M391.383850,299.801361 
	C396.358429,299.064850 400.933716,298.182678 405.547577,297.870819 
	C409.265991,297.619476 411.547791,295.201233 414.054047,293.146393 
	C416.010773,291.542084 417.807281,289.913879 419.975586,292.325775 
	C422.097137,294.685669 421.036743,296.979614 419.000000,298.859680 
	C415.633820,301.966919 411.384369,303.514709 407.260040,305.238464 
	C394.546783,310.552063 378.098328,306.065704 370.023987,295.088501 
	C368.538483,293.068909 367.314270,290.841827 367.068512,288.306213 
	C366.880585,286.367218 366.544983,283.977753 369.295319,283.527161 
	C371.657410,283.140228 372.531586,285.069122 372.762482,286.932159 
	C373.472260,292.659363 376.811554,296.108551 381.878845,298.345856 
	C384.823090,299.645782 387.747314,300.623138 391.383850,299.801361 
z"/>
<path fill="#000000" opacity="1.000000" stroke="none" 
	d="
M390.204132,252.187912 
	C390.990021,251.280533 391.533875,250.655457 392.079590,250.032013 
	C393.412109,248.509674 394.986725,248.430191 396.488892,249.592880 
	C398.130585,250.863602 397.131104,252.300110 396.345825,253.549316 
	C392.993530,258.881927 389.587067,264.180420 386.208862,269.496826 
	C383.897400,273.134460 381.589569,276.774506 379.301422,280.426819 
	C378.425201,281.825378 377.600861,283.251465 374.673065,283.444702 
	C378.378815,272.014008 383.466553,261.914368 390.204132,252.187912 
z"/>
<path fill="#000000" opacity="1.000000" stroke="none" 
	d="
M65.665680,692.481934 
	C61.479156,687.474548 61.634995,686.900085 67.445564,685.523438 
	C70.416367,684.819702 72.148666,683.256287 71.982117,680.012573 
	C71.914520,678.696167 71.840355,677.330627 73.101227,676.411621 
	C78.301750,678.039734 79.159126,681.622559 76.192299,689.272705 
	C74.279076,694.206116 71.066895,695.297485 65.665680,692.481934 
z"/>
<path fill="#000000" opacity="1.000000" stroke="none" 
	d="
M512.663940,671.060547 
	C507.980896,672.550415 503.783966,672.454590 499.711182,670.749695 
	C499.828552,668.365784 501.121307,667.673767 502.419006,668.057129 
	C505.638275,669.008118 508.584839,668.151245 511.588806,667.291748 
	C512.757141,666.957520 513.988037,666.841675 514.549805,668.182129 
	C515.136047,669.580994 513.938904,670.207703 512.663940,671.060547 
z"/>
<path fill="#000000" opacity="1.000000" stroke="none" 
	d="
M602.415955,524.297302 
	C603.814331,524.073669 604.826904,524.221802 605.195923,525.362366 
	C605.607910,526.635803 604.543884,527.075500 603.665344,527.524353 
	C600.378906,529.203491 597.335266,527.760254 596.520081,524.121826 
	C598.457947,522.290588 600.187317,525.348755 602.415955,524.297302 
z"/>
<path fill="#000000" opacity="1.000000" stroke="none" 
	d="
M488.166077,668.127869 
	C490.967255,665.039124 495.419220,665.999023 497.291901,670.317139 
	C494.530762,671.128296 492.147980,669.908936 489.216064,668.921021 
	C488.551331,668.472839 488.364929,668.293884 488.166077,668.127869 
z"/>
<path fill="#000000" opacity="1.000000" stroke="none" 
	d="
M417.020569,390.797485 
	C417.884094,388.517365 418.163544,386.228363 420.598877,385.096497 
	C422.840881,387.070648 422.259247,389.292450 420.842590,391.169373 
	C419.915344,392.397949 418.264099,393.716339 417.020569,390.797485 
z"/>
<path fill="#000000" opacity="1.000000" stroke="none" 
	d="
M487.836823,667.921143 
	C488.364929,668.293884 488.551331,668.472839 488.852570,668.812622 
	C486.161926,669.489441 483.343994,670.018372 480.557831,670.541382 
	C479.351227,668.509399 480.122589,666.942810 481.635132,666.193115 
	C483.812683,665.113953 485.741058,666.428894 487.836823,667.921143 
z"/>
<path fill="#000000" opacity="1.000000" stroke="none" 
	d="
M470.635071,667.515137 
	C469.964386,666.574097 469.436859,665.767578 470.312683,665.147461 
	C471.346771,664.415283 472.608490,664.518372 473.395233,665.481567 
	C474.497498,666.831177 475.599487,668.304993 474.980133,670.502075 
	C472.754578,670.815918 472.164520,668.702026 470.635071,667.515137 
z"/>
<path fill="#000000" opacity="1.000000" stroke="none" 
	d="
M44.114799,84.587990 
	C45.152252,85.780800 44.770779,86.716415 44.339890,87.627167 
	C37.830208,101.386581 32.793205,115.829414 25.279066,129.114578 
	C22.861727,133.388489 20.007673,137.474152 13.950104,139.804764 
	C16.445227,128.086334 23.563627,119.016708 26.213503,107.791306 
	C19.318878,109.533028 16.416008,104.660995 13.179813,100.317360 
	C11.299338,97.793365 9.331270,95.330963 7.539651,92.745880 
	C6.528263,91.286583 5.056942,89.590645 6.473452,87.793282 
	C7.784142,86.130196 9.887083,86.661629 11.606512,87.181808 
	C16.154442,88.557693 18.892942,92.239342 21.807882,95.637199 
	C23.073391,97.112373 23.826654,99.069183 26.226082,100.006386 
	C29.677168,95.690163 33.226711,91.371223 36.633591,86.942543 
	C38.531944,84.474823 40.573997,82.868729 44.114799,84.587990 
z"/>
<path fill="#000000" opacity="1.000000" stroke="none" 
	d="
M26.838043,216.953003 
	C19.306007,215.731293 12.480467,213.775604 6.924314,208.826126 
	C3.896182,206.128647 1.518533,202.631668 3.289180,198.722412 
	C5.037820,194.861771 8.499956,192.348190 13.319185,192.646545 
	C19.030190,193.000107 24.600208,193.657852 30.605158,197.385178 
	C26.377579,199.179382 23.551498,198.061478 20.749136,197.648926 
	C16.865866,197.077255 12.450800,199.745667 11.660862,203.649170 
	C10.770545,208.048721 14.372346,208.849945 17.373991,209.699463 
	C20.398777,210.555496 23.548735,210.959106 26.625326,211.644150 
	C35.889397,213.706863 42.084599,222.270523 41.091217,231.559723 
	C40.959877,232.787888 40.611526,233.902008 39.352112,234.339905 
	C38.066807,234.786804 37.113907,234.120895 36.350750,233.123810 
	C34.791641,231.086746 34.235161,228.705734 33.598370,226.256332 
	C32.620850,222.496277 32.121670,218.168289 26.838043,216.953003 
z"/>
</svg>